<svg id="Layer_1" data-name="Layer 1" xmlns="http://www.w3.org/2000/svg" xmlns:xlink="http://www.w3.org/1999/xlink" viewBox="0 0 1973.51 485.35"><defs><style>.cls-1,.cls-2,.cls-3{fill:none;}.cls-2{clip-rule:evenodd;}.cls-29,.cls-3{fill-rule:evenodd;}.cls-4{clip-path:url(#clip-path);}.cls-5{font-size:56.21px;}.cls-30,.cls-37,.cls-5{font-family:Calibri;}.cls-6{letter-spacing:0em;}.cls-7{letter-spacing:0em;}.cls-8{letter-spacing:0em;}.cls-9{letter-spacing:0em;}.cls-10{letter-spacing:0em;}.cls-11{letter-spacing:0em;}.cls-12{letter-spacing:-0.03em;}.cls-13{letter-spacing:0em;}.cls-14{letter-spacing:-0.01em;}.cls-15{letter-spacing:0em;}.cls-16{letter-spacing:0em;}.cls-17{letter-spacing:0em;}.cls-18{letter-spacing:0em;}.cls-19{letter-spacing:0em;}.cls-20{letter-spacing:0em;}.cls-21{letter-spacing:0em;}.cls-22{letter-spacing:-0.02em;}.cls-23{letter-spacing:0em;}.cls-24{letter-spacing:-0.01em;}.cls-25{letter-spacing:0em;}.cls-26{letter-spacing:0em;}.cls-27{letter-spacing:0em;}.cls-28{clip-path:url(#clip-path-2);}.cls-30,.cls-37{font-size:224.24px;}.cls-30{fill:#f3941f;}.cls-31{letter-spacing:0em;}.cls-32{letter-spacing:-0.02em;}.cls-33{letter-spacing:0em;}.cls-34{letter-spacing:-0.02em;}.cls-35{letter-spacing:0em;}.cls-36{letter-spacing:0em;}.cls-38{font-size:163.14px;font-family:KGJarofHearts, KG Jar of Hearts;}.cls-39{letter-spacing:0em;}.cls-40{letter-spacing:0em;}.cls-41{letter-spacing:0em;}.cls-42{letter-spacing:0em;}</style><clipPath id="clip-path" transform="translate(-282.66 -422.79)"><rect class="cls-1" x="147.6" y="328.36" width="2109.18" height="629.94"/></clipPath><clipPath id="clip-path-2" transform="translate(-282.66 -422.79)"><polygon class="cls-2" points="147.6 958.3 2256.78 958.3 2256.78 328.36 147.6 328.36 147.6 958.3 147.6 958.3"/></clipPath></defs><title>neuro</title><g class="cls-4"><text class="cls-5" transform="translate(121.84 442.68)"><tspan class="cls-6">T</tspan><tspan class="cls-7" x="27.45" y="0">H</tspan><tspan x="62.3" y="0">E</tspan><tspan class="cls-8" x="89.75" y="0"> </tspan><tspan class="cls-6" x="102.57" y="0">Q</tspan><tspan x="140.45" y="0">U</tspan><tspan class="cls-9" x="176.52" y="0">A</tspan><tspan class="cls-10" x="208.93" y="0">L</tspan><tspan class="cls-11" x="232.73" y="0">I</tspan><tspan class="cls-6" x="246.83" y="0">TY</tspan><tspan class="cls-12" x="301.73" y="0"> </tspan><tspan x="312.75" y="0">O</tspan><tspan class="cls-13" x="349.97" y="0">F</tspan><tspan class="cls-14" x="375.69" y="0"> </tspan><tspan class="cls-15" x="387.95" y="0">L</tspan><tspan class="cls-16" x="411.75" y="0">I</tspan><tspan class="cls-13" x="425.85" y="0">F</tspan><tspan x="451.57" y="0">E</tspan><tspan class="cls-14" x="479.02" y="0"> </tspan><tspan class="cls-17" x="491.28" y="0">T</tspan><tspan x="518.72" y="0">EC</tspan><tspan class="cls-7" x="576.14" y="0">H</tspan><tspan class="cls-18" x="611" y="0">N</tspan><tspan x="647.06" y="0">O</tspan><tspan class="cls-10" x="684.28" y="0">L</tspan><tspan class="cls-19" x="708.08" y="0">OG</tspan><tspan class="cls-11" x="780.76" y="0">I</tspan><tspan class="cls-20" x="794.86" y="0">E</tspan><tspan class="cls-21" x="822.31" y="0">S</tspan><tspan class="cls-22" x="848.03" y="0"> </tspan><tspan x="859.67" y="0">CE</tspan><tspan class="cls-18" x="917.09" y="0">N</tspan><tspan class="cls-17" x="953.15" y="0">T</tspan><tspan x="980.6" y="0">ER</tspan><tspan class="cls-23" x="1038.57" y="0"> </tspan><tspan x="1051.39" y="0">O</tspan><tspan class="cls-9" x="1088.6" y="0">F</tspan><tspan class="cls-24" x="1114.32" y="0"> </tspan><tspan class="cls-25" x="1126.58" y="0">M</tspan><tspan class="cls-21" x="1174.81" y="0">A</tspan><tspan class="cls-26" x="1207.22" y="0">D</tspan><tspan x="1242.03" y="0">E</tspan><tspan class="cls-27" x="1269.48" y="0">I</tspan><tspan x="1283.58" y="0">RA</tspan></text></g><g class="cls-28"><path class="cls-29" d="M1811.62,498.18a42.93,42.93,0,1,1,26.25,54.92,43.05,43.05,0,0,1-26.25-54.92Zm20.26,7.1a21.46,21.46,0,1,0,27.43-13.38,21.57,21.57,0,0,0-27.43,13.38Z" transform="translate(-282.66 -422.79)"/><g class="cls-28"><path class="cls-29" d="M1881.59,499a3.54,3.54,0,0,1,4.52-2.18l213.24,74.67a3.56,3.56,0,0,1,2.18,4.52l-14.77,42.19a3.55,3.55,0,0,1-4.52,2.17L1869,545.71a3.54,3.54,0,0,1-2.17-4.52Z" transform="translate(-282.66 -422.79)"/><g class="cls-28"><rect x="2028.16" y="527.83" width="107.63" height="51.51" rx="4.37" transform="translate(588.75 1912.83) rotate(-70.7)"/><g class="cls-28"><rect x="1975.88" y="439.71" width="51.79" height="111.74" rx="5.24" transform="translate(589.8 1798.3) rotate(-70.7)"/><g class="cls-28"><path class="cls-29" d="M2199.79,441.33a43.16,43.16,0,1,1-55.13,25.81,43.05,43.05,0,0,1,55.13-25.81Zm-7.37,20.16a21.69,21.69,0,1,0,12.72,27.74,21.58,21.58,0,0,0-12.72-27.74Z" transform="translate(-282.66 -422.79)"/><g class="cls-28"><path class="cls-29" d="M2197.79,511.57a3.52,3.52,0,0,1,2.1,4.52l-78,213.42a3.52,3.52,0,0,1-4.52,2.1l-41.76-15.25a3.53,3.53,0,0,1-2.1-4.53l78-213.41a3.53,3.53,0,0,1,4.52-2.11Z" transform="translate(-282.66 -422.79)"/><g class="cls-28"><rect x="2114.16" y="658.68" width="51.79" height="107.07" rx="4.39" transform="translate(454.05 2055.13) rotate(-69.93)"/><g class="cls-28"><path class="cls-29" d="M2160.61,678a5.22,5.22,0,0,1-3.11-6.69l35-95.72a5.21,5.21,0,0,1,6.69-3.1l38.59,14.1a5.21,5.21,0,0,1,3.11,6.68l-35,95.72a5.22,5.22,0,0,1-6.69,3.11Z" transform="translate(-282.66 -422.79)"/><g class="cls-28"><path class="cls-29" d="M2253.48,829.1a42.93,42.93,0,1,1-25.33-55.35,43,43,0,0,1,25.33,55.35Zm-20.14-7.43a21.46,21.46,0,1,0-27.64,12.91,21.59,21.59,0,0,0,27.64-12.91Z" transform="translate(-282.66 -422.79)"/><g class="cls-28"><path class="cls-29" d="M2183.54,827.1a3.55,3.55,0,0,1-4.56,2.1L1967,751a3.54,3.54,0,0,1-2.1-4.55l15.47-41.93a3.55,3.55,0,0,1,4.56-2.1l212,78.24a3.54,3.54,0,0,1,2.1,4.55Z" transform="translate(-282.66 -422.79)"/><g class="cls-28"><path class="cls-29" d="M1945.39,812.23a4.36,4.36,0,0,1-2.58-5.61l34.24-92.78a4.36,4.36,0,0,1,5.61-2.58l40.13,14.81a4.38,4.38,0,0,1,2.59,5.61l-34.25,92.78a4.36,4.36,0,0,1-5.61,2.58Z" transform="translate(-282.66 -422.79)"/><g class="cls-28"><path class="cls-29" d="M2018.05,789.79a5.23,5.23,0,0,1,6.73-3.1l95,35.06a5.23,5.23,0,0,1,3.1,6.73l-14.3,38.75a5.23,5.23,0,0,1-6.73,3.1l-95-35.06a5.24,5.24,0,0,1-3.11-6.73Z" transform="translate(-282.66 -422.79)"/><g class="cls-28"><path class="cls-29" d="M1868.89,882.71A43.15,43.15,0,1,1,1924,856.94a43,43,0,0,1-55.14,25.77Zm7.37-20.15a21.7,21.7,0,1,0-12.7-27.75,21.58,21.58,0,0,0,12.7,27.75Z" transform="translate(-282.66 -422.79)"/><g class="cls-28"><path class="cls-29" d="M1870.91,812.48a3.53,3.53,0,0,1-2.1-4.53l78.08-213.38a3.52,3.52,0,0,1,4.52-2.1l41.75,15.28a3.52,3.52,0,0,1,2.1,4.52l-78.07,213.38a3.52,3.52,0,0,1-4.52,2.1Z" transform="translate(-282.66 -422.79)"/><g class="cls-28"><path class="cls-29" d="M1885.86,573.27a4.4,4.4,0,0,1,5.64-2.61l92.29,33.77a4.39,4.39,0,0,1,2.62,5.63l-14.78,40.38a4.39,4.39,0,0,1-5.63,2.62l-92.3-33.77a4.38,4.38,0,0,1-2.61-5.63Z" transform="translate(-282.66 -422.79)"/><g class="cls-28"><rect x="1813.42" y="666.02" width="112.33" height="51.51" rx="5.21" transform="translate(294.87 1787.05) rotate(-69.9)"/><g class="cls-28"><g class="cls-4"><text class="cls-30" transform="translate(0 182.96)">N<tspan class="cls-31" x="144.75" y="0">e</tspan><tspan x="256.54" y="0">u</tspan><tspan class="cls-32" x="374.35" y="0">r</tspan><tspan class="cls-33" x="448.94" y="0">o</tspan><tspan class="cls-34" x="567.42" y="0">R</tspan><tspan class="cls-35" x="685.36" y="0">e</tspan><tspan class="cls-36" x="797.16" y="0">hab</tspan></text></g><g class="cls-28"><g class="cls-4"><text class="cls-37" transform="translate(1140.73 182.96)">Lab</text></g><g class="cls-28"><g class="cls-4"><text class="cls-38" transform="translate(159.35 365.54)">@L<tspan class="cls-39" x="241.2" y="0">if</tspan><tspan class="cls-40" x="332.96" y="0">e</tspan><tspan x="411.66" y="0">T</tspan><tspan class="cls-41" x="488.61" y="0">e</tspan><tspan class="cls-39" x="567.32" y="0">c</tspan><tspan x="631.52" y="0">h</tspan><tspan class="cls-42" x="701.93" y="0"> </tspan><tspan x="743.02" y="0">M</tspan><tspan class="cls-41" x="890.39" y="0">ade</tspan><tspan class="cls-39" x="1127.3" y="0">i</tspan><tspan x="1159.16" y="0">ra</tspan></text></g></g></g></g></g></g></g></g></g></g></g></g></g></g></g></g></g></g></g></g></svg>